<svg width="60" height="60" viewBox="0 0 60 60" fill="none" xmlns="http://www.w3.org/2000/svg">
<path d="M30 11.7402C40.0833 11.7402 48.333 19.972 48.333 30.1104C48.3427 34.4839 46.7886 38.7167 43.9512 42.0449C41.1138 45.3731 37.1803 47.5774 32.8604 48.2598V35.4268H37.1318L37.957 30.1104H32.8604V26.6631C32.8604 25.2149 33.5754 23.8037 35.8486 23.8037H38.1582V19.2754C38.1441 19.273 36.0618 18.9268 34.0703 18.9268C29.872 18.9268 27.1396 21.4569 27.1396 26.0586V30.1104H22.4834V35.4268H27.1396V48.2598C18.3766 46.8846 11.6671 39.2767 11.667 30.1104C11.667 19.972 19.9167 11.7402 30 11.7402Z" fill="#828282"/>
</svg>
