<svg width="60" height="60" viewBox="0 0 60 60" fill="none" xmlns="http://www.w3.org/2000/svg">
<path d="M37.7002 11.667C43.5667 11.6671 48.3329 16.4333 48.333 22.2998V37.7002C48.333 40.5203 47.2128 43.2247 45.2188 45.2188C43.2247 47.2128 40.5203 48.333 37.7002 48.333H22.2998C16.4333 48.3329 11.6671 43.5667 11.667 37.7002V22.2998C11.667 19.4797 12.7872 16.7753 14.7812 14.7812C16.7753 12.7872 19.4797 11.667 22.2998 11.667H37.7002ZM21.9336 15.333C20.1832 15.333 18.5043 16.0289 17.2666 17.2666C16.0289 18.5043 15.333 20.1832 15.333 21.9336V38.0664C15.333 41.7147 18.2853 44.667 21.9336 44.667H38.0664C39.8168 44.667 41.4957 43.9711 42.7334 42.7334C43.9711 41.4957 44.667 39.8168 44.667 38.0664V21.9336C44.667 18.2853 41.7147 15.333 38.0664 15.333H21.9336ZM30 20.833C32.4312 20.833 34.7624 21.7995 36.4814 23.5186C38.2005 25.2376 39.167 27.5688 39.167 30C39.167 32.4312 38.2005 34.7624 36.4814 36.4814C34.7624 38.2005 32.4312 39.167 30 39.167C27.5688 39.167 25.2376 38.2005 23.5186 36.4814C21.7995 34.7624 20.833 32.4312 20.833 30C20.833 27.5688 21.7995 25.2376 23.5186 23.5186C25.2376 21.7995 27.5688 20.833 30 20.833ZM30 24.5C28.5413 24.5 27.1428 25.0799 26.1113 26.1113C25.0799 27.1428 24.5 28.5413 24.5 30C24.5 31.4587 25.0799 32.8572 26.1113 33.8887C27.1428 34.9201 28.5413 35.5 30 35.5C31.4587 35.5 32.8572 34.9201 33.8887 33.8887C34.9201 32.8572 35.5 31.4587 35.5 30C35.5 28.5413 34.9201 27.1428 33.8887 26.1113C32.8572 25.0799 31.4587 24.5 30 24.5ZM39.625 18.083C40.2328 18.083 40.8153 18.3251 41.2451 18.7549C41.6749 19.1847 41.917 19.7672 41.917 20.375C41.917 20.9828 41.6749 21.5653 41.2451 21.9951C40.8153 22.4249 40.2328 22.667 39.625 22.667C39.0172 22.667 38.4347 22.4249 38.0049 21.9951C37.5751 21.5653 37.333 20.9828 37.333 20.375C37.333 19.7672 37.5751 19.1847 38.0049 18.7549C38.4347 18.3251 39.0172 18.083 39.625 18.083Z" fill="#828282"/>
</svg>
