<svg width="60" height="60" viewBox="0 0 60 60" fill="none" xmlns="http://www.w3.org/2000/svg">
<path d="M42.833 13.5C43.8055 13.5 44.7381 13.8866 45.4258 14.5742C46.1134 15.2619 46.5 16.1945 46.5 17.167V42.833C46.5 43.8055 46.1134 44.7381 45.4258 45.4258C44.7381 46.1134 43.8055 46.5 42.833 46.5H17.167C16.1945 46.5 15.2619 46.1134 14.5742 45.4258C13.8866 44.7381 13.5 43.8055 13.5 42.833V17.167C13.5 16.1945 13.8866 15.2619 14.5742 14.5742C15.2619 13.8866 16.1945 13.5 17.167 13.5H42.833ZM18.083 41.917H23.1621V26.5713H18.083V41.917ZM35.9404 26.2236C34.3821 26.2236 32.5665 27.1765 31.6865 28.6064V26.5713H26.5713V41.917H31.6865V32.8779C31.6867 31.4664 32.8238 30.3115 34.2354 30.3115C34.9159 30.3116 35.5685 30.5822 36.0498 31.0635C36.5311 31.5447 36.8017 32.1974 36.8018 32.8779V41.917H41.917V32.2002C41.917 30.6151 41.2869 29.0945 40.166 27.9736C39.0453 26.853 37.5253 26.2237 35.9404 26.2236ZM20.6133 17.5146C19.7916 17.5147 19.0039 17.8418 18.4229 18.4229C17.8418 19.0039 17.5147 19.7916 17.5146 20.6133C17.5146 22.3183 18.9083 23.6933 20.6133 23.6934C21.4301 23.6934 22.2134 23.3686 22.791 22.791C23.3686 22.2134 23.6934 21.4301 23.6934 20.6133C23.6933 18.9083 22.3183 17.5146 20.6133 17.5146Z" fill="#828282"/>
</svg>
