<svg width="60" height="60" viewBox="0 0 60 60" fill="none" xmlns="http://www.w3.org/2000/svg">
<path d="M30 17.167C37.6817 17.167 42.4671 17.4603 44.3555 17.9736C46.005 18.432 47.068 19.495 47.5264 21.1445C47.7647 22.0061 47.93 23.1615 48.04 24.6279C48.1684 26.0946 48.2236 27.36 48.2236 28.46L48.333 30C48.333 34.015 48.0397 36.9671 47.5264 38.8555C47.068 40.505 46.005 41.568 44.3555 42.0264C43.4938 42.2647 41.9168 42.43 39.4971 42.54C37.1138 42.6684 34.9317 42.7236 32.915 42.7236L30 42.833C22.3183 42.833 17.5329 42.5397 15.6445 42.0264C13.995 41.568 12.932 40.505 12.4736 38.8555C12.2353 37.9939 12.07 36.8385 11.96 35.3721C11.8316 33.9054 11.7764 32.64 11.7764 31.54L11.667 30C11.667 25.985 11.9603 23.0329 12.4736 21.1445C12.932 19.495 13.995 18.432 15.6445 17.9736C16.5062 17.7353 18.0832 17.57 20.5029 17.46C22.8862 17.3316 25.0683 17.2764 27.085 17.2764L30 17.167ZM26.333 35.5L35.8486 30L26.333 24.5V35.5Z" fill="#828282"/>
</svg>
